<?xml version="1.0" encoding="UTF-8"?>
<svg xmlns="http://www.w3.org/2000/svg" xmlns:xlink="http://www.w3.org/1999/xlink" width="16pt" height="15pt" viewBox="0 0 16 15" version="1.1">
<g id="surface1">
<path style=" stroke:none;fill-rule:nonzero;fill:rgb(85.882353%,13.72549%,13.72549%);fill-opacity:1;" d="M 14.019531 5.734375 Z M 4.816406 0.648438 C 5.3125 0.9375 5.777344 1.296875 6.175781 1.699219 C 6.816406 1.578125 7.480469 1.515625 8.144531 1.515625 C 10.15625 1.515625 12.058594 2.066406 13.511719 3.066406 C 14.261719 3.582031 14.855469 4.199219 15.28125 4.890625 C 15.753906 5.664062 15.996094 6.496094 15.996094 7.386719 C 15.996094 8.253906 15.753906 9.085938 15.28125 9.863281 C 14.855469 10.558594 14.261719 11.167969 13.511719 11.6875 C 12.058594 12.6875 10.15625 13.234375 8.144531 13.234375 C 7.480469 13.234375 6.816406 13.171875 6.175781 13.054688 C 5.777344 13.457031 5.3125 13.816406 4.816406 14.105469 C 2.1875 15.480469 0 14.136719 0 14.136719 C 0 14.136719 2.03125 12.335938 1.703125 10.757812 C 0.792969 9.78125 0.300781 8.609375 0.300781 7.367188 C 0.300781 6.140625 0.792969 4.96875 1.703125 3.996094 C 2.03125 2.417969 0 0.617188 0 0.617188 C 0 0.617188 2.1875 -0.726562 4.816406 0.648438 Z M 4.816406 0.648438 "/>
<path style=" stroke:none;fill-rule:nonzero;fill:rgb(100%,100%,100%);fill-opacity:1;" d="M 3.246094 10.117188 C 2.339844 9.371094 1.796875 8.417969 1.796875 7.375 C 1.796875 4.992188 4.65625 3.058594 8.175781 3.058594 C 11.703125 3.058594 14.558594 4.992188 14.558594 7.375 C 14.558594 9.761719 11.703125 11.699219 8.175781 11.699219 C 7.308594 11.699219 6.480469 11.578125 5.730469 11.367188 L 5.175781 11.921875 C 4.875 12.226562 4.527344 12.5 4.15625 12.71875 C 3.671875 12.964844 3.191406 13.101562 2.71875 13.140625 C 2.746094 13.09375 2.769531 13.042969 2.796875 12.988281 C 3.347656 11.921875 3.5 10.964844 3.246094 10.117188 Z M 3.246094 10.117188 "/>
<path style=" stroke:none;fill-rule:nonzero;fill:rgb(85.882353%,13.72549%,13.72549%);fill-opacity:1;" d="M 5.125 8.34375 C 4.609375 8.34375 4.1875 7.90625 4.1875 7.367188 C 4.1875 6.820312 4.609375 6.382812 5.125 6.382812 C 5.644531 6.382812 6.066406 6.820312 6.066406 7.367188 C 6.066406 7.90625 5.644531 8.34375 5.125 8.34375 Z M 8.152344 8.34375 C 7.636719 8.34375 7.214844 7.90625 7.214844 7.367188 C 7.214844 6.820312 7.636719 6.382812 8.152344 6.382812 C 8.671875 6.382812 9.09375 6.820312 9.09375 7.367188 C 9.09375 7.90625 8.671875 8.34375 8.152344 8.34375 Z M 11.175781 8.34375 C 10.660156 8.34375 10.238281 7.90625 10.238281 7.367188 C 10.238281 6.820312 10.660156 6.382812 11.175781 6.382812 C 11.699219 6.382812 12.121094 6.820312 12.121094 7.367188 C 12.121094 7.90625 11.699219 8.34375 11.175781 8.34375 Z M 11.175781 8.34375 "/>
</g>
</svg>
